<?xml version="1.0" encoding="UTF-8" standalone="no"?>
<svg
   xmlns:dc="http://purl.org/dc/elements/1.1/"
   xmlns:cc="http://creativecommons.org/ns#"
   xmlns:rdf="http://www.w3.org/1999/02/22-rdf-syntax-ns#"
   xmlns:svg="http://www.w3.org/2000/svg"
   xmlns="http://www.w3.org/2000/svg"
   id="svg8196"
   version="1.1"
   viewBox="17.4 56.2 172.7 31.000452"
   height="31.000452mm"
   width="172.70023mm">
  <metadata>
    <rdf:RDF>
      <cc:Work rdf:about="">
        <dc:format>image/svg+xml</dc:format>
        <dc:type rdf:resource="http://purl.org/dc/dcmitype/StillImage" />
        <dc:title></dc:title>
      </cc:Work>
    </rdf:RDF>
  </metadata>
    <path style="fill:#000000;fill-opacity:1"
       d="m 32.904576,87.226415 c -8.560643,0 -15.500226,-6.939583 -15.500226,-15.500226 0,-8.560643 6.939583,-15.500226 15.500226,-15.500226 h 51.500746 c 8.56065,0 15.50023,6.939583 15.50023,15.500226 0,8.560643 -6.93958,15.500226 -15.50023,15.500226 z" />
    <g style="fill:#00a6ed;fill-opacity:1" >
      <path
         d="m 38.561526,66.069239 c -3.124288,-3.124288 -8.189612,-3.124288 -11.3139,0 -3.124288,3.124288 -3.124288,8.189612 0,11.3139 3.124288,3.124288 8.189612,3.124288 11.3139,0 l 2.828421,2.828421 c -4.686399,4.686398 -12.284343,4.686398 -16.970742,0 -4.686398,-4.686399 -4.686398,-12.284343 0,-16.970742 4.686399,-4.686398 12.284343,-4.686398 16.970742,0 z"
         />
      <path
         d="m 49.099372,67.786938 c 2.175616,0.383604 3.628288,2.458216 3.244681,4.633821 -0.383604,2.175616 -2.458216,3.628281 -4.633824,3.244681 -0.808274,-0.142516 -1.5535,-0.530486 -2.133851,-1.110834 l -2.828417,2.82842 c 3.124225,3.124222 8.189454,3.124222 11.313679,0 3.124221,-3.124224 3.124221,-8.18945 0,-11.313674 l 2.342977,-6.342969 H 44.404655 v 3.999988 h 6.199992 z" />
      <path
         d="m 61.990786,73.140394 c 1.506643,1.506643 1.506643,3.949336 0,5.455976 -1.506644,1.506644 -3.949333,1.506644 -5.455984,0 l -2.828417,2.828421 c 3.068758,3.068754 8.044067,3.068754 11.112818,0 3.068757,-3.068754 3.068757,-8.044064 0,-11.112814 -1.506644,-1.506643 -1.506644,-3.949333 0,-5.455976 1.506643,-1.506644 3.949333,-1.506644 5.455976,0 l 2.828424,-2.828417 c -3.068757,-3.068758 -8.044067,-3.068758 -11.112817,0 -3.068758,3.06875 -3.068758,8.04406 0,11.11281" />
      <path
         d="m 92.151055,69.726528 c -1.104395,-4.277907 -5.467494,-6.850468 -9.745401,-5.746069 -4.277903,1.104392 -6.850464,5.467491 -5.746069,9.745391 1.104396,4.277907 5.467498,6.850468 9.745401,5.746069 1.383186,-0.357082 2.647111,-1.078597 3.657286,-2.08878 l 2.828424,2.828421 c -4.686402,4.686398 -12.28435,4.686398 -16.970745,0 -4.686402,-4.686399 -4.686402,-12.284343 0,-16.970742 4.686395,-4.686398 12.284343,-4.686398 16.970745,0 2.74658,2.746583 3.993741,6.655305 3.346475,10.485081 H 84.237047 v -3.999981 z" />
    </g>
    <g style="fill:#00a6ed;fill-opacity:1" aria-label="Chalmers Centre for Computational Science and Engineering">
      <path
         d="m 106.15744,61.846463 q -0.0339,-0.254 -0.1524,-0.4572 -0.11007,-0.211666 -0.28787,-0.3556 -0.1778,-0.1524 -0.4064,-0.2286 -0.2286,-0.08467 -0.4826,-0.08467 -0.44873,0 -0.77046,0.186266 -0.32174,0.1778 -0.5334,0.4826 -0.2032,0.296334 -0.3048,0.677333 -0.0931,0.381 -0.0931,0.770467 0,0.397933 0.0931,0.778933 0.1016,0.372534 0.3048,0.677334 0.21166,0.296333 0.5334,0.4826 0.32173,0.1778 0.77046,0.1778 0.29634,0 0.52494,-0.09313 0.23706,-0.09313 0.41486,-0.254 0.1778,-0.160866 0.3048,-0.381 0.127,-0.2286 0.21167,-0.491066 l 1.03293,0.474133 q -0.36406,0.9144 -0.97366,1.354667 -0.6096,0.440266 -1.51554,0.440266 -0.72813,0 -1.27,-0.254 -0.5334,-0.254 -0.89746,-0.6858 -0.36407,-0.440266 -0.54187,-1.016 -0.1778,-0.575733 -0.1778,-1.210733 0,-0.635 0.19473,-1.210733 0.2032,-0.575733 0.57574,-1.007533 0.37253,-0.440267 0.90593,-0.694267 0.5334,-0.254 1.21073,-0.254 0.9144,0 1.55787,0.474133 0.64347,0.474134 0.8636,1.4224 z" />
      <path
         d="m 107.92314,59.82293 h 1.03293 v 2.167466 h 0.0169 q 0.16934,-0.220133 0.47414,-0.372533 0.31326,-0.1524 0.75353,-0.1524 0.27093,0 0.55033,0.06773 0.2794,0.06773 0.49954,0.245533 0.2286,0.169333 0.37253,0.474133 0.14393,0.296333 0.14393,0.762 v 2.836333 h -1.03293 v -2.54 q 0,-0.448733 -0.18627,-0.643466 -0.1778,-0.2032 -0.57573,-0.2032 -0.29633,0 -0.49107,0.110066 -0.19473,0.110067 -0.31326,0.287867 -0.11007,0.169333 -0.16087,0.381 -0.0508,0.211667 -0.0508,0.4064 v 2.201333 h -1.03293 z" />
      <path
         d="m 116.36626,65.13153 q 0,0.3302 0.0593,0.491066 0.0593,0.160867 0.1016,0.2286 h -1.0922 q -0.0508,-0.0762 -0.0762,-0.186266 -0.0254,-0.118534 -0.0254,-0.2032 -0.6096,0.491066 -1.397,0.491066 -0.3048,0 -0.57573,-0.09313 -0.26247,-0.09313 -0.4572,-0.262467 -0.19473,-0.1778 -0.31327,-0.423333 -0.11006,-0.254 -0.11006,-0.567267 0,-0.313266 0.11006,-0.541866 0.11854,-0.237067 0.3048,-0.389467 0.18627,-0.160867 0.41487,-0.254 0.23707,-0.1016 0.47413,-0.1524 l 0.4318,-0.08467 q 0.13547,-0.0254 0.28787,-0.0508 0.16087,-0.03387 0.31327,-0.06773 0.1524,-0.03387 0.2794,-0.06773 0.13546,-0.03387 0.23706,-0.06773 v -0.127 q 0,-0.313266 -0.23706,-0.423333 -0.23707,-0.118533 -0.57574,-0.118533 -0.4572,0 -0.62653,0.143933 -0.16933,0.143933 -0.16933,0.499533 l -1.03294,-0.04233 q 0,-0.381 0.1524,-0.643467 0.1524,-0.262466 0.4064,-0.431799 0.254,-0.169334 0.5842,-0.245534 0.3302,-0.0762 0.6858,-0.0762 0.34714,0 0.67734,0.0508 0.3302,0.04233 0.59266,0.194734 0.26247,0.152399 0.41487,0.431799 0.16087,0.270934 0.16087,0.728134 z m -1.03294,-1.4224 q -0.19473,0.1016 -0.49106,0.1524 l -0.56727,0.118533 q -0.29633,0.05927 -0.508,0.1778 -0.2032,0.110067 -0.2032,0.414867 0,0.245533 0.19473,0.389466 0.19474,0.143934 0.47414,0.143934 0.1778,0 0.37253,-0.04233 0.19473,-0.0508 0.3556,-0.143933 0.16087,-0.09313 0.26247,-0.245533 0.11006,-0.1524 0.11006,-0.3556 z" />
      <path
         d="m 117.33238,59.82293 h 1.03293 v 6.028266 h -1.03293 z" />
      <path
         d="m 119.3829,61.567063 h 1.03293 v 0.423333 q 0.23707,-0.245533 0.52494,-0.380999 0.29633,-0.143934 0.7112,-0.143934 0.18626,0 0.381,0.03387 0.19473,0.03387 0.36406,0.110067 0.16934,0.0762 0.3048,0.2032 0.13547,0.118533 0.21167,0.296333 0.23707,-0.313267 0.5588,-0.474133 0.3302,-0.169334 0.762,-0.169334 0.70273,0 1.10067,0.338667 0.39793,0.338666 0.39793,1.032933 v 3.014133 h -1.03293 V 63.25193 q 0,-0.372534 -0.16934,-0.601134 -0.16933,-0.237066 -0.5334,-0.237066 -0.22013,0 -0.38946,0.1016 -0.16934,0.09313 -0.28787,0.262466 -0.11853,0.160867 -0.18627,0.372534 -0.0593,0.211666 -0.0593,0.440266 v 2.2606 h -1.03294 V 63.25193 q 0,-0.372534 -0.16933,-0.601134 -0.16933,-0.237066 -0.55033,-0.237066 -0.21167,0 -0.381,0.1016 -0.16087,0.09313 -0.2794,0.262466 -0.11854,0.160867 -0.18627,0.372534 -0.0593,0.211666 -0.0593,0.440266 v 2.2606 h -1.03293 z" />
      <path
         d="m 127.55443,63.954663 q 0.008,0.237067 0.1016,0.4318 0.0931,0.194733 0.24553,0.3302 0.16087,0.135467 0.3556,0.211667 0.19473,0.0762 0.4064,0.0762 0.3048,0 0.51647,-0.0762 0.22013,-0.0762 0.36406,-0.1778 0.1524,-0.1016 0.2286,-0.2032 0.0847,-0.1016 0.127,-0.1524 l 0.87207,0.508 q -0.11853,0.186266 -0.3048,0.372533 -0.1778,0.186267 -0.4318,0.338667 -0.254,0.1524 -0.59267,0.245533 -0.33866,0.09313 -0.77893,0.09313 -0.52493,0 -0.93133,-0.169333 -0.4064,-0.169333 -0.6858,-0.465667 -0.2794,-0.3048 -0.4318,-0.7112 -0.14394,-0.414866 -0.14394,-0.897466 0,-0.4826 0.14394,-0.889 0.1524,-0.414867 0.4318,-0.7112 0.2794,-0.3048 0.6858,-0.474133 0.4064,-0.169334 0.93133,-0.169334 0.5334,0 0.92287,0.1778 0.38946,0.169334 0.64346,0.491067 0.254,0.321733 0.37254,0.7874 0.11853,0.4572 0.11853,1.032933 z m 2.0828,-0.795867 q 0,-0.08467 -0.0593,-0.2286 -0.0508,-0.143933 -0.16933,-0.2794 -0.11854,-0.135466 -0.3048,-0.237066 -0.1778,-0.1016 -0.44027,-0.1016 -0.4572,0 -0.74507,0.254 -0.2794,0.245533 -0.36406,0.592666 z" />
      <path
         d="m 131.45452,61.567063 h 1.03293 v 0.592667 h 0.0169 q 0.18627,-0.372533 0.52494,-0.5334 0.33866,-0.160867 0.79586,-0.160867 v 1.049867 q -0.26246,0 -0.508,0.06773 -0.23706,0.06773 -0.42333,0.220133 -0.18627,0.143934 -0.29633,0.389467 -0.11007,0.237067 -0.11007,0.5842 v 2.074333 h -1.03293 z" />
      <path
         d="m 137.19121,62.92173 q -0.0508,-0.1016 -0.13547,-0.211667 -0.0847,-0.110067 -0.22013,-0.194733 -0.13547,-0.09313 -0.31327,-0.143934 -0.1778,-0.05927 -0.4064,-0.05927 -0.36406,-0.0085 -0.57573,0.110066 -0.21167,0.110067 -0.21167,0.3048 0,0.186267 0.19474,0.2794 0.2032,0.08467 0.49953,0.143934 0.3048,0.0508 0.65193,0.110066 0.3556,0.05927 0.65194,0.194734 0.3048,0.127 0.49953,0.364066 0.2032,0.2286 0.2032,0.635 0,0.389467 -0.16087,0.677334 -0.16086,0.2794 -0.42333,0.465666 -0.26247,0.1778 -0.6096,0.262467 -0.34713,0.09313 -0.7112,0.09313 -0.762,0 -1.27847,-0.2286 -0.508,-0.2286 -0.79586,-0.550333 l 0.77893,-0.601133 q 0.1778,0.262466 0.49953,0.397933 0.32174,0.135467 0.7366,0.135467 0.18627,0 0.33867,-0.04233 0.1524,-0.0508 0.26247,-0.118533 0.11006,-0.0762 0.16933,-0.160867 0.0593,-0.09313 0.0593,-0.1778 0,-0.1778 -0.19474,-0.262466 -0.19473,-0.09313 -0.49106,-0.1524 -0.29634,-0.05927 -0.64347,-0.118534 -0.33867,-0.06773 -0.635,-0.2032 -0.29633,-0.135466 -0.49107,-0.372533 -0.19473,-0.237067 -0.19473,-0.643467 0,-0.364066 0.14393,-0.626533 0.1524,-0.262467 0.4064,-0.4318 0.254,-0.169333 0.60114,-0.245533 0.34713,-0.08467 0.74506,-0.08467 0.381,0 0.67734,0.08467 0.29633,0.08467 0.508,0.211667 0.22013,0.118533 0.36406,0.253999 0.14394,0.135467 0.22014,0.2286 z" />
      <path
         d="m 145.05119,61.846463 q -0.0339,-0.254 -0.1524,-0.4572 -0.11007,-0.211666 -0.28787,-0.3556 -0.1778,-0.1524 -0.4064,-0.2286 -0.2286,-0.08467 -0.4826,-0.08467 -0.44873,0 -0.77046,0.186266 -0.32174,0.1778 -0.5334,0.4826 -0.2032,0.296334 -0.3048,0.677333 -0.0931,0.381 -0.0931,0.770467 0,0.397933 0.0931,0.778933 0.1016,0.372534 0.3048,0.677334 0.21166,0.296333 0.5334,0.4826 0.32173,0.1778 0.77046,0.1778 0.29634,0 0.52494,-0.09313 0.23706,-0.09313 0.41486,-0.254 0.1778,-0.160866 0.3048,-0.381 0.127,-0.2286 0.21167,-0.491066 l 1.03293,0.474133 q -0.36406,0.9144 -0.97366,1.354667 -0.6096,0.440266 -1.51554,0.440266 -0.72813,0 -1.27,-0.254 -0.5334,-0.254 -0.89746,-0.6858 -0.36407,-0.440266 -0.54187,-1.016 -0.1778,-0.575733 -0.1778,-1.210733 0,-0.635 0.19473,-1.210733 0.2032,-0.575733 0.57574,-1.007533 0.37253,-0.440267 0.90593,-0.694267 0.5334,-0.254 1.21073,-0.254 0.9144,0 1.55787,0.474133 0.64347,0.474134 0.8636,1.4224 z" />
      <path
         d="m 147.62968,63.954663 q 0.008,0.237067 0.1016,0.4318 0.0931,0.194733 0.24554,0.3302 0.16086,0.135467 0.3556,0.211667 0.19473,0.0762 0.4064,0.0762 0.3048,0 0.51646,-0.0762 0.22014,-0.0762 0.36407,-0.1778 0.1524,-0.1016 0.2286,-0.2032 0.0847,-0.1016 0.127,-0.1524 l 0.87207,0.508 q -0.11854,0.186266 -0.3048,0.372533 -0.1778,0.186267 -0.4318,0.338667 -0.254,0.1524 -0.59267,0.245533 -0.33867,0.09313 -0.77893,0.09313 -0.52494,0 -0.93134,-0.169333 -0.4064,-0.169333 -0.6858,-0.465667 -0.2794,-0.3048 -0.4318,-0.7112 -0.14393,-0.414866 -0.14393,-0.897466 0,-0.4826 0.14393,-0.889 0.1524,-0.414867 0.4318,-0.7112 0.2794,-0.3048 0.6858,-0.474133 0.4064,-0.169334 0.93134,-0.169334 0.5334,0 0.92286,0.1778 0.38947,0.169334 0.64347,0.491067 0.254,0.321733 0.37253,0.7874 0.11854,0.4572 0.11854,1.032933 z m 2.0828,-0.795867 q 0,-0.08467 -0.0593,-0.2286 -0.0508,-0.143933 -0.16934,-0.2794 -0.11853,-0.135466 -0.3048,-0.237066 -0.1778,-0.1016 -0.44026,-0.1016 -0.4572,0 -0.74507,0.254 -0.2794,0.245533 -0.36407,0.592666 z" />
      <path
         d="m 151.52977,61.567063 h 1.03294 v 0.423333 h 0.0169 q 0.2286,-0.279399 0.54187,-0.397933 0.31326,-0.127 0.62653,-0.127 0.77047,0 1.1176,0.372534 0.3556,0.372533 0.3556,1.083733 v 2.929466 h -1.03293 v -2.6162 q 0,-0.143933 -0.0423,-0.2794 -0.0339,-0.143933 -0.11853,-0.245533 -0.0762,-0.110067 -0.21167,-0.1778 -0.13546,-0.06773 -0.33866,-0.06773 -0.18627,0 -0.3556,0.06773 -0.16087,0.05927 -0.28787,0.2032 -0.127,0.135467 -0.2032,0.347133 -0.0677,0.211667 -0.0677,0.508 v 2.2606 h -1.03294 z" />
      <path
         d="m 156.40353,60.05153 h 1.03293 v 1.515533 h 0.92287 v 0.745067 h -0.92287 v 2.167466 q 0,0.254 0.0847,0.389467 0.0847,0.135467 0.381,0.135467 0.11007,0 0.22013,-0.01693 0.11854,-0.01693 0.23707,-0.03387 v 0.846666 q -0.18627,0.04233 -0.381,0.06773 -0.19473,0.03387 -0.44027,0.03387 -0.635,0 -0.889,-0.270933 -0.24553,-0.270933 -0.24553,-0.762 V 62.31213 H 155.777 v -0.745067 h 0.62653 z" />
      <path
         d="m 158.90503,61.567063 h 1.03294 v 0.592667 h 0.0169 q 0.18627,-0.372533 0.52493,-0.5334 0.33867,-0.160867 0.79587,-0.160867 v 1.049867 q -0.26247,0 -0.508,0.06773 -0.23707,0.06773 -0.42333,0.220133 -0.18627,0.143934 -0.29634,0.389467 -0.11006,0.237067 -0.11006,0.5842 v 2.074333 H 158.905 Z" />
      <path
         d="m 162.6944,63.954663 q 0.008,0.237067 0.1016,0.4318 0.0931,0.194733 0.24553,0.3302 0.16087,0.135467 0.3556,0.211667 0.19473,0.0762 0.4064,0.0762 0.3048,0 0.51647,-0.0762 0.22013,-0.0762 0.36406,-0.1778 0.1524,-0.1016 0.2286,-0.2032 0.0847,-0.1016 0.127,-0.1524 l 0.87207,0.508 q -0.11853,0.186266 -0.3048,0.372533 -0.1778,0.186267 -0.4318,0.338667 -0.254,0.1524 -0.59267,0.245533 -0.33866,0.09313 -0.77893,0.09313 -0.52493,0 -0.93133,-0.169333 -0.4064,-0.169333 -0.6858,-0.465667 -0.2794,-0.3048 -0.4318,-0.7112 -0.14394,-0.414866 -0.14394,-0.897466 0,-0.4826 0.14394,-0.889 0.1524,-0.414867 0.4318,-0.7112 0.2794,-0.3048 0.6858,-0.474133 0.4064,-0.169334 0.93133,-0.169334 0.5334,0 0.92287,0.1778 0.38946,0.169334 0.64346,0.491067 0.254,0.321733 0.37254,0.7874 0.11853,0.4572 0.11853,1.032933 z m 2.0828,-0.795867 q 0,-0.08467 -0.0593,-0.2286 -0.0508,-0.143933 -0.16933,-0.2794 -0.11854,-0.135466 -0.3048,-0.237066 -0.1778,-0.1016 -0.44027,-0.1016 -0.4572,0 -0.74507,0.254 -0.2794,0.245533 -0.36406,0.592666 z" />
      <path
         d="M 169.10353,62.31213 H 168.477 v -0.745067 h 0.62653 V 60.88973 q 0,-0.3302 0.1016,-0.5334 0.1016,-0.211667 0.27093,-0.3302 0.1778,-0.118533 0.4064,-0.160867 0.2286,-0.04233 0.4826,-0.04233 0.34714,0 0.69427,0.0254 V 60.7458 q -0.16933,-0.0254 -0.33867,-0.0254 -0.31326,0 -0.44873,0.135466 -0.13547,0.127 -0.13547,0.4064 v 0.3048 h 0.92287 v 0.745067 h -0.92287 v 3.539066 h -1.03293 z" />
      <path
         d="m 173.52696,61.465463 q 0.51647,0 0.92287,0.169334 0.41487,0.169333 0.69427,0.474133 0.2794,0.296333 0.42333,0.7112 0.1524,0.4064 0.1524,0.889 0,0.4826 -0.1524,0.897466 -0.14393,0.4064 -0.42333,0.7112 -0.2794,0.296334 -0.69427,0.465667 -0.4064,0.169333 -0.92287,0.169333 -0.52493,0 -0.93133,-0.169333 -0.4064,-0.169333 -0.6858,-0.465667 -0.2794,-0.3048 -0.4318,-0.7112 -0.14393,-0.414866 -0.14393,-0.897466 0,-0.4826 0.14393,-0.889 0.1524,-0.414867 0.4318,-0.7112 0.2794,-0.3048 0.6858,-0.474133 0.4064,-0.169334 0.93133,-0.169334 z m 0,0.948267 q -0.2794,0 -0.49106,0.110066 -0.2032,0.110067 -0.34714,0.287867 -0.13546,0.1778 -0.2032,0.414867 -0.0677,0.2286 -0.0677,0.4826 0,0.254 0.0677,0.491066 0.0677,0.2286 0.2032,0.4064 0.14394,0.1778 0.34714,0.287867 0.21166,0.110067 0.49106,0.110067 0.2794,0 0.4826,-0.110067 0.21167,-0.110067 0.34714,-0.287867 0.14393,-0.1778 0.21166,-0.4064 0.0677,-0.237066 0.0677,-0.491066 0,-0.254 -0.0677,-0.4826 -0.0677,-0.237067 -0.21166,-0.414867 -0.13547,-0.1778 -0.34714,-0.287867 -0.2032,-0.110066 -0.4826,-0.110066 z" />
      <path
         d="m 176.46676,61.567063 h 1.03293 v 0.592667 h 0.0169 q 0.18627,-0.372533 0.52494,-0.5334 0.33866,-0.160867 0.79586,-0.160867 v 1.049867 q -0.26246,0 -0.508,0.06773 -0.23706,0.06773 -0.42333,0.220133 -0.18627,0.143934 -0.29633,0.389467 -0.11007,0.237067 -0.11007,0.5842 v 2.074333 h -1.03293 z" />
      <path
         d="m 106.15744,70.313129 q -0.0339,-0.254 -0.1524,-0.4572 -0.11007,-0.211666 -0.28787,-0.3556 -0.1778,-0.1524 -0.4064,-0.2286 -0.2286,-0.08467 -0.4826,-0.08467 -0.44873,0 -0.77046,0.186266 -0.32174,0.1778 -0.5334,0.4826 -0.2032,0.296334 -0.3048,0.677334 -0.0931,0.381 -0.0931,0.770466 0,0.397934 0.0931,0.778934 0.1016,0.372533 0.3048,0.677333 0.21166,0.296333 0.5334,0.4826 0.32173,0.1778 0.77046,0.1778 0.29634,0 0.52494,-0.09313 0.23706,-0.09313 0.41486,-0.254 0.1778,-0.160867 0.3048,-0.381 0.127,-0.2286 0.21167,-0.491067 l 1.03293,0.474133 q -0.36406,0.9144 -0.97366,1.354667 -0.6096,0.440267 -1.51554,0.440267 -0.72813,0 -1.27,-0.254 -0.5334,-0.254 -0.89746,-0.6858 -0.36407,-0.440267 -0.54187,-1.016 -0.1778,-0.575734 -0.1778,-1.210734 0,-0.635 0.19473,-1.210733 0.2032,-0.575733 0.57574,-1.007533 0.37253,-0.440267 0.90593,-0.694267 0.5334,-0.254 1.21073,-0.254 0.9144,0 1.55787,0.474133 0.64347,0.474134 0.8636,1.4224 z" />
      <path
         d="m 109.84507,69.932129 q 0.51647,0 0.92287,0.169334 0.41486,0.169333 0.69426,0.474133 0.2794,0.296333 0.42334,0.7112 0.1524,0.4064 0.1524,0.889 0,0.4826 -0.1524,0.897467 -0.14394,0.4064 -0.42334,0.7112 -0.2794,0.296333 -0.69426,0.465666 -0.4064,0.169334 -0.92287,0.169334 -0.52493,0 -0.93133,-0.169334 -0.4064,-0.169333 -0.6858,-0.465666 -0.2794,-0.3048 -0.4318,-0.7112 -0.14394,-0.414867 -0.14394,-0.897467 0,-0.4826 0.14394,-0.889 0.1524,-0.414867 0.4318,-0.7112 0.2794,-0.3048 0.6858,-0.474133 0.4064,-0.169334 0.93133,-0.169334 z m 0,0.948267 q -0.2794,0 -0.49107,0.110067 -0.2032,0.110066 -0.34713,0.287866 -0.13547,0.1778 -0.2032,0.414867 -0.0677,0.2286 -0.0677,0.4826 0,0.254 0.0677,0.491067 0.0677,0.2286 0.2032,0.4064 0.14393,0.1778 0.34713,0.287866 0.21167,0.110067 0.49107,0.110067 0.2794,0 0.4826,-0.110067 0.21167,-0.110066 0.34713,-0.287866 0.14394,-0.1778 0.21167,-0.4064 0.0677,-0.237067 0.0677,-0.491067 0,-0.254 -0.0677,-0.4826 -0.0677,-0.237067 -0.21167,-0.414867 -0.13546,-0.1778 -0.34713,-0.287866 -0.2032,-0.110067 -0.4826,-0.110067 z" />
      <path
         d="m 112.78486,70.033729 h 1.03293 v 0.423334 q 0.23707,-0.245534 0.52493,-0.381 0.29634,-0.143934 0.7112,-0.143934 0.18627,0 0.381,0.03387 0.19474,0.03387 0.36407,0.110067 0.16933,0.0762 0.3048,0.2032 0.13547,0.118533 0.21167,0.296333 0.23706,-0.313267 0.5588,-0.474133 0.3302,-0.169334 0.762,-0.169334 0.70273,0 1.10066,0.338667 0.39794,0.338667 0.39794,1.032933 v 3.014134 h -1.03294 v -2.599267 q 0,-0.372533 -0.16933,-0.601133 -0.16933,-0.237067 -0.5334,-0.237067 -0.22013,0 -0.38947,0.1016 -0.16933,0.09313 -0.28786,0.262467 -0.11854,0.160866 -0.18627,0.372533 -0.0593,0.211667 -0.0593,0.440267 v 2.2606 h -1.03293 v -2.599267 q 0,-0.372533 -0.16933,-0.601133 -0.16934,-0.237067 -0.55034,-0.237067 -0.21166,0 -0.381,0.1016 -0.16086,0.09313 -0.2794,0.262467 -0.11853,0.160866 -0.18626,0.372533 -0.0593,0.211667 -0.0593,0.440267 v 2.2606 h -1.03293 z" />
      <path
         d="m 120.14358,70.033729 h 1.03293 v 0.364067 h 0.0169 q 0.23707,-0.220133 0.5334,-0.338667 0.3048,-0.127 0.6858,-0.127 0.4064,0 0.74507,0.1778 0.33867,0.1778 0.5842,0.4826 0.24553,0.3048 0.381,0.7112 0.13547,0.4064 0.13547,0.872067 0,0.465667 -0.13547,0.872067 -0.13547,0.4064 -0.381,0.7112 -0.24553,0.3048 -0.59267,0.4826 -0.33866,0.1778 -0.75353,0.1778 -0.46567,0 -0.74507,-0.143934 -0.27093,-0.143933 -0.47413,-0.372533 v 1.786466 h -1.03293 z m 2.01506,3.437467 q 0.28787,0 0.4826,-0.110067 0.19474,-0.118533 0.31327,-0.3048 0.11853,-0.186266 0.16933,-0.414866 0.0508,-0.237067 0.0508,-0.465667 0,-0.2286 -0.0508,-0.4572 -0.0508,-0.237067 -0.16933,-0.423333 -0.11853,-0.186267 -0.31327,-0.296334 -0.19473,-0.118533 -0.4826,-0.118533 -0.29633,0 -0.49106,0.118533 -0.18627,0.110067 -0.3048,0.296334 -0.11854,0.186266 -0.16934,0.423333 -0.0508,0.2286 -0.0508,0.4572 0,0.2286 0.0508,0.465667 0.0508,0.2286 0.16934,0.414866 0.11853,0.186267 0.3048,0.3048 0.19473,0.110067 0.49106,0.110067 z" />
      <path
         d="m 128.84916,74.317863 h -1.03293 v -0.423334 h -0.0169 q -0.16934,0.220134 -0.4826,0.372534 -0.3048,0.1524 -0.74507,0.1524 -0.27093,0 -0.55033,-0.06773 -0.2794,-0.06773 -0.508,-0.237066 -0.22014,-0.1778 -0.36407,-0.474134 -0.14393,-0.3048 -0.14393,-0.770466 v -2.836334 h 1.03293 v 2.54 q 0,0.448734 0.1778,0.651934 0.18627,0.194733 0.5842,0.194733 0.28787,0 0.4826,-0.09313 0.2032,-0.1016 0.31327,-0.254 0.11853,-0.1524 0.16933,-0.347134 0.0508,-0.194733 0.0508,-0.389466 v -2.302934 h 1.03293 z" />
      <path
         d="m 130.02788,68.518196 h 1.03294 v 1.515533 h 0.92286 v 0.745067 h -0.92286 v 2.167467 q 0,0.254 0.0847,0.389466 0.0847,0.135467 0.381,0.135467 0.11007,0 0.22014,-0.01693 0.11853,-0.01693 0.23706,-0.03387 v 0.846667 q -0.18626,0.04233 -0.381,0.06773 -0.19473,0.03387 -0.44026,0.03387 -0.635,0 -0.889,-0.270934 -0.24554,-0.270933 -0.24554,-0.762 v -2.556933 h -0.62653 v -0.745067 h 0.62653 z" />
      <path
         d="m 136.11078,73.598196 q 0,0.3302 0.0593,0.491067 0.0593,0.160866 0.1016,0.2286 h -1.0922 q -0.0508,-0.0762 -0.0762,-0.186267 -0.0254,-0.118533 -0.0254,-0.2032 -0.6096,0.491067 -1.397,0.491067 -0.3048,0 -0.57573,-0.09313 -0.26247,-0.09313 -0.4572,-0.262466 -0.19473,-0.1778 -0.31327,-0.423334 -0.11006,-0.254 -0.11006,-0.567266 0,-0.313267 0.11006,-0.541867 0.11854,-0.237067 0.3048,-0.389467 0.18627,-0.160866 0.41487,-0.254 0.23707,-0.1016 0.47413,-0.1524 l 0.4318,-0.08467 q 0.13547,-0.0254 0.28787,-0.0508 0.16087,-0.03387 0.31327,-0.06773 0.1524,-0.03387 0.2794,-0.06773 0.13546,-0.03387 0.23706,-0.06773 v -0.127 q 0,-0.313267 -0.23706,-0.423334 -0.23707,-0.118533 -0.57574,-0.118533 -0.4572,0 -0.62653,0.143933 -0.16933,0.143934 -0.16933,0.499534 l -1.03294,-0.04233 q 0,-0.381 0.1524,-0.643466 0.1524,-0.262467 0.4064,-0.4318 0.254,-0.169334 0.5842,-0.245534 0.3302,-0.0762 0.6858,-0.0762 0.34714,0 0.67734,0.0508 0.3302,0.04233 0.59266,0.194734 0.26247,0.1524 0.41487,0.4318 0.16086,0.270933 0.16086,0.728133 z m -1.03293,-1.4224 q -0.19473,0.1016 -0.49106,0.1524 l -0.56727,0.118533 q -0.29633,0.05927 -0.508,0.1778 -0.2032,0.110067 -0.2032,0.414867 0,0.245533 0.19473,0.389467 0.19474,0.143933 0.47414,0.143933 0.1778,0 0.37253,-0.04233 0.19473,-0.0508 0.3556,-0.143934 0.16087,-0.09313 0.26247,-0.245533 0.11006,-0.1524 0.11006,-0.3556 z" />
      <path
         d="m 137.23778,68.518196 h 1.03293 v 1.515533 h 0.92287 v 0.745067 h -0.92287 v 2.167467 q 0,0.254 0.0847,0.389466 0.0847,0.135467 0.381,0.135467 0.11007,0 0.22013,-0.01693 0.11854,-0.01693 0.23707,-0.03387 v 0.846667 q -0.18627,0.04233 -0.381,0.06773 -0.19473,0.03387 -0.44027,0.03387 -0.635,0 -0.889,-0.270934 -0.24553,-0.270933 -0.24553,-0.762 v -2.556933 h -0.62653 v -0.745067 h 0.62653 z" />
      <path
         d="m 139.73928,70.033729 h 1.03293 v 4.284134 h -1.03293 z m 0,-1.744133 h 1.03293 v 1.049867 h -1.03293 z" />
      <path
         d="m 143.71174,69.932129 q 0.51646,0 0.92286,0.169334 0.41487,0.169333 0.69427,0.474133 0.2794,0.296333 0.42333,0.7112 0.1524,0.4064 0.1524,0.889 0,0.4826 -0.1524,0.897467 -0.14393,0.4064 -0.42333,0.7112 -0.2794,0.296333 -0.69427,0.465666 -0.4064,0.169334 -0.92286,0.169334 -0.52494,0 -0.93134,-0.169334 -0.4064,-0.169333 -0.6858,-0.465666 -0.2794,-0.3048 -0.4318,-0.7112 -0.14393,-0.414867 -0.14393,-0.897467 0,-0.4826 0.14393,-0.889 0.1524,-0.414867 0.4318,-0.7112 0.2794,-0.3048 0.6858,-0.474133 0.4064,-0.169334 0.93134,-0.169334 z m 0,0.948267 q -0.2794,0 -0.49107,0.110067 -0.2032,0.110066 -0.34713,0.287866 -0.13547,0.1778 -0.2032,0.414867 -0.0677,0.2286 -0.0677,0.4826 0,0.254 0.0677,0.491067 0.0677,0.2286 0.2032,0.4064 0.14393,0.1778 0.34713,0.287866 0.21167,0.110067 0.49107,0.110067 0.2794,0 0.4826,-0.110067 0.21166,-0.110066 0.34713,-0.287866 0.14393,-0.1778 0.21167,-0.4064 0.0677,-0.237067 0.0677,-0.491067 0,-0.254 -0.0677,-0.4826 -0.0677,-0.237067 -0.21167,-0.414867 -0.13547,-0.1778 -0.34713,-0.287866 -0.2032,-0.110067 -0.4826,-0.110067 z" />
      <path
         d="m 146.65152,70.033729 h 1.03293 v 0.423334 h 0.0169 q 0.2286,-0.2794 0.54186,-0.397934 0.31327,-0.127 0.62654,-0.127 0.77046,0 1.1176,0.372534 0.3556,0.372533 0.3556,1.083733 v 2.929467 h -1.03294 v -2.6162 q 0,-0.143934 -0.0423,-0.2794 -0.0339,-0.143934 -0.11853,-0.245534 -0.0762,-0.110066 -0.21167,-0.1778 -0.13547,-0.06773 -0.33867,-0.06773 -0.18626,0 -0.3556,0.06773 -0.16086,0.05927 -0.28786,0.2032 -0.127,0.135467 -0.2032,0.347134 -0.0677,0.211666 -0.0677,0.508 v 2.2606 h -1.03293 z" />
      <path
         d="m 154.94581,73.598196 q 0,0.3302 0.0593,0.491067 0.0593,0.160866 0.1016,0.2286 h -1.0922 q -0.0508,-0.0762 -0.0762,-0.186267 -0.0254,-0.118533 -0.0254,-0.2032 -0.6096,0.491067 -1.397,0.491067 -0.3048,0 -0.57574,-0.09313 -0.26246,-0.09313 -0.4572,-0.262466 -0.19473,-0.1778 -0.31326,-0.423334 -0.11007,-0.254 -0.11007,-0.567266 0,-0.313267 0.11007,-0.541867 0.11853,-0.237067 0.3048,-0.389467 0.18626,-0.160866 0.41486,-0.254 0.23707,-0.1016 0.47414,-0.1524 l 0.4318,-0.08467 q 0.13546,-0.0254 0.28786,-0.0508 0.16087,-0.03387 0.31327,-0.06773 0.1524,-0.03387 0.2794,-0.06773 0.13547,-0.03387 0.23707,-0.06773 v -0.127 q 0,-0.313267 -0.23707,-0.423334 -0.23707,-0.118533 -0.57573,-0.118533 -0.4572,0 -0.62654,0.143933 -0.16933,0.143934 -0.16933,0.499534 l -1.03293,-0.04233 q 0,-0.381 0.1524,-0.643466 0.1524,-0.262467 0.4064,-0.4318 0.254,-0.169334 0.5842,-0.245534 0.3302,-0.0762 0.6858,-0.0762 0.34713,0 0.67733,0.0508 0.3302,0.04233 0.59267,0.194734 0.26246,0.1524 0.41486,0.4318 0.16087,0.270933 0.16087,0.728133 z m -1.03293,-1.4224 q -0.19474,0.1016 -0.49107,0.1524 l -0.56727,0.118533 q -0.29633,0.05927 -0.508,0.1778 -0.2032,0.110067 -0.2032,0.414867 0,0.245533 0.19474,0.389467 0.19473,0.143933 0.47413,0.143933 0.1778,0 0.37253,-0.04233 0.19474,-0.0508 0.3556,-0.143934 0.16087,-0.09313 0.26247,-0.245533 0.11007,-0.1524 0.11007,-0.3556 z" />
      <path
         d="m 155.91194,68.289596 h 1.03293 v 6.028267 h -1.03293 z" />
      <path
         d="m 160.76784,72.505996 q 0.32173,0.474133 0.7874,0.694267 0.47413,0.220133 1.03293,0.220133 0.2032,0 0.4318,-0.03387 0.2286,-0.04233 0.41487,-0.127 0.18626,-0.09313 0.30479,-0.237066 0.127,-0.1524 0.127,-0.372534 0,-0.1778 -0.0847,-0.296333 -0.0762,-0.118533 -0.23707,-0.2032 -0.16086,-0.09313 -0.38946,-0.160867 -0.2286,-0.06773 -0.5334,-0.135466 l -0.66887,-0.1524 q -0.36407,-0.08467 -0.69427,-0.2032 -0.32173,-0.118534 -0.57573,-0.3048 -0.24553,-0.194734 -0.39793,-0.474134 -0.14394,-0.287866 -0.14394,-0.702733 0,-0.474133 0.2032,-0.829733 0.21167,-0.3556 0.54187,-0.5842 0.3302,-0.237067 0.74507,-0.347134 0.42333,-0.118533 0.84666,-0.118533 0.77894,0 1.40547,0.296333 0.635,0.287867 1.10913,0.9144 l -0.9398,0.7112 q -0.22013,-0.414866 -0.62653,-0.643466 -0.39793,-0.2286 -0.95673,-0.2286 -0.49107,0 -0.82127,0.1778 -0.32173,0.169333 -0.32173,0.491066 0,0.186267 0.0931,0.313267 0.1016,0.118533 0.27093,0.2032 0.1778,0.08467 0.39794,0.143933 0.2286,0.0508 0.4826,0.110067 l 0.7366,0.160867 q 0.33866,0.0762 0.65193,0.194733 0.31326,0.110067 0.55033,0.3048 0.24553,0.186267 0.38947,0.4826 0.1524,0.287867 0.1524,0.719667 0,0.550333 -0.23707,0.931333 -0.23707,0.381 -0.61807,0.618067 -0.37253,0.2286 -0.84666,0.3302 -0.47413,0.1016 -0.9398,0.1016 -0.37253,0 -0.74507,-0.08467 -0.37253,-0.0762 -0.71966,-0.237067 -0.33867,-0.160866 -0.635,-0.397933 -0.29634,-0.237067 -0.508,-0.550333 z" />
      <path
         d="m 168.62861,71.566196 q -0.1016,-0.321733 -0.3556,-0.499533 -0.24554,-0.186267 -0.55034,-0.186267 -0.2794,0 -0.49106,0.110067 -0.2032,0.110066 -0.34714,0.287866 -0.13546,0.1778 -0.2032,0.414867 -0.0677,0.2286 -0.0677,0.4826 0,0.254 0.0593,0.491067 0.0677,0.2286 0.19473,0.4064 0.127,0.1778 0.32173,0.287866 0.2032,0.110067 0.47414,0.110067 0.2286,0 0.39793,-0.0762 0.16933,-0.0762 0.28787,-0.194733 0.127,-0.118534 0.21166,-0.262467 0.0847,-0.1524 0.14394,-0.296333 l 0.88053,0.465666 q -0.11007,0.237067 -0.26247,0.474134 -0.1524,0.2286 -0.381,0.414866 -0.2286,0.186267 -0.55033,0.3048 -0.31327,0.118534 -0.74507,0.118534 -0.49106,0 -0.889,-0.169334 -0.38946,-0.169333 -0.6604,-0.465666 -0.27093,-0.3048 -0.42333,-0.7112 -0.14393,-0.414867 -0.14393,-0.897467 0,-0.4826 0.14393,-0.889 0.1524,-0.414867 0.4318,-0.7112 0.2794,-0.3048 0.6858,-0.474133 0.4064,-0.169334 0.93133,-0.169334 0.38947,0 0.6858,0.1016 0.29634,0.1016 0.508,0.270934 0.22014,0.160866 0.36407,0.389466 0.1524,0.220134 0.254,0.4572 z" />
      <path
         d="m 170.19944,70.033729 h 1.03293 v 4.284134 h -1.03293 z m 0,-1.744133 h 1.03293 v 1.049867 h -1.03293 z" />
      <path
         d="m 173.06276,72.421329 q 0.008,0.237067 0.1016,0.4318 0.0931,0.194734 0.24553,0.3302 0.16087,0.135467 0.3556,0.211667 0.19474,0.0762 0.4064,0.0762 0.3048,0 0.51647,-0.0762 0.22013,-0.0762 0.36407,-0.1778 0.1524,-0.1016 0.2286,-0.2032 0.0847,-0.1016 0.127,-0.1524 l 0.87206,0.508 q -0.11853,0.186267 -0.3048,0.372533 -0.1778,0.186267 -0.4318,0.338667 -0.254,0.1524 -0.59266,0.245533 -0.33867,0.09313 -0.77894,0.09313 -0.52493,0 -0.93133,-0.169334 -0.4064,-0.169333 -0.6858,-0.465666 -0.2794,-0.3048 -0.4318,-0.7112 -0.14393,-0.414867 -0.14393,-0.897467 0,-0.4826 0.14393,-0.889 0.1524,-0.414867 0.4318,-0.7112 0.2794,-0.3048 0.6858,-0.474133 0.4064,-0.169334 0.93133,-0.169334 0.5334,0 0.92287,0.1778 0.38947,0.169334 0.64347,0.491067 0.254,0.321733 0.37253,0.7874 0.11853,0.4572 0.11853,1.032933 z m 2.0828,-0.795866 q 0,-0.08467 -0.0593,-0.2286 -0.0508,-0.143934 -0.16933,-0.2794 -0.11853,-0.135467 -0.3048,-0.237067 -0.1778,-0.1016 -0.44027,-0.1016 -0.4572,0 -0.74506,0.254 -0.2794,0.245533 -0.36407,0.592667 z" />
      <path
         d="m 176.96285,70.033729 h 1.03293 v 0.423334 h 0.0169 q 0.2286,-0.2794 0.54186,-0.397934 0.31327,-0.127 0.62654,-0.127 0.77046,0 1.1176,0.372534 0.3556,0.372533 0.3556,1.083733 v 2.929467 h -1.03294 v -2.6162 q 0,-0.143934 -0.0423,-0.2794 -0.0339,-0.143934 -0.11853,-0.245534 -0.0762,-0.110066 -0.21167,-0.1778 -0.13547,-0.06773 -0.33867,-0.06773 -0.18626,0 -0.3556,0.06773 -0.16086,0.05927 -0.28786,0.2032 -0.127,0.135467 -0.2032,0.347134 -0.0677,0.211666 -0.0677,0.508 v 2.2606 h -1.03293 z" />
      <path
         d="m 184.50361,71.566196 q -0.1016,-0.321733 -0.3556,-0.499533 -0.24554,-0.186267 -0.55034,-0.186267 -0.2794,0 -0.49106,0.110067 -0.2032,0.110066 -0.34714,0.287866 -0.13546,0.1778 -0.2032,0.414867 -0.0677,0.2286 -0.0677,0.4826 0,0.254 0.0593,0.491067 0.0677,0.2286 0.19473,0.4064 0.127,0.1778 0.32173,0.287866 0.2032,0.110067 0.47414,0.110067 0.2286,0 0.39793,-0.0762 0.16933,-0.0762 0.28787,-0.194733 0.127,-0.118534 0.21166,-0.262467 0.0847,-0.1524 0.14394,-0.296333 l 0.88053,0.465666 q -0.11007,0.237067 -0.26247,0.474134 -0.1524,0.2286 -0.381,0.414866 -0.2286,0.186267 -0.55033,0.3048 -0.31327,0.118534 -0.74507,0.118534 -0.49106,0 -0.889,-0.169334 -0.38946,-0.169333 -0.6604,-0.465666 -0.27093,-0.3048 -0.42333,-0.7112 -0.14393,-0.414867 -0.14393,-0.897467 0,-0.4826 0.14393,-0.889 0.1524,-0.414867 0.4318,-0.7112 0.2794,-0.3048 0.6858,-0.474133 0.4064,-0.169334 0.93133,-0.169334 0.38947,0 0.6858,0.1016 0.29634,0.1016 0.508,0.270934 0.22014,0.160866 0.36407,0.389466 0.1524,0.220134 0.254,0.4572 z" />
      <path
         d="m 186.88724,72.421329 q 0.008,0.237067 0.1016,0.4318 0.0931,0.194734 0.24553,0.3302 0.16087,0.135467 0.3556,0.211667 0.19473,0.0762 0.4064,0.0762 0.3048,0 0.51647,-0.0762 0.22013,-0.0762 0.36406,-0.1778 0.1524,-0.1016 0.2286,-0.2032 0.0847,-0.1016 0.127,-0.1524 l 0.87207,0.508 q -0.11853,0.186267 -0.3048,0.372533 -0.1778,0.186267 -0.4318,0.338667 -0.254,0.1524 -0.59267,0.245533 -0.33866,0.09313 -0.77893,0.09313 -0.52493,0 -0.93133,-0.169334 -0.4064,-0.169333 -0.6858,-0.465666 -0.2794,-0.3048 -0.4318,-0.7112 -0.14394,-0.414867 -0.14394,-0.897467 0,-0.4826 0.14394,-0.889 0.1524,-0.414867 0.4318,-0.7112 0.2794,-0.3048 0.6858,-0.474133 0.4064,-0.169334 0.93133,-0.169334 0.5334,0 0.92287,0.1778 0.38946,0.169334 0.64346,0.491067 0.254,0.321733 0.37254,0.7874 0.11853,0.4572 0.11853,1.032933 z m 2.0828,-0.795866 q 0,-0.08467 -0.0593,-0.2286 -0.0508,-0.143934 -0.16933,-0.2794 -0.11854,-0.135467 -0.3048,-0.237067 -0.1778,-0.1016 -0.44027,-0.1016 -0.4572,0 -0.74507,0.254 -0.2794,0.245533 -0.36406,0.592667 z" />
      <path
         d="m 105.70024,82.064862 q 0,0.3302 0.0593,0.491067 0.0593,0.160866 0.1016,0.2286 h -1.0922 q -0.0508,-0.0762 -0.0762,-0.186267 -0.0254,-0.118533 -0.0254,-0.2032 -0.6096,0.491067 -1.397,0.491067 -0.3048,0 -0.57574,-0.09313 -0.26246,-0.09313 -0.4572,-0.262466 -0.19473,-0.1778 -0.31326,-0.423334 -0.11007,-0.254 -0.11007,-0.567266 0,-0.313267 0.11007,-0.541867 0.11853,-0.237066 0.3048,-0.389466 0.18626,-0.160867 0.41486,-0.254 0.23707,-0.1016 0.47414,-0.1524 l 0.4318,-0.08467 q 0.13546,-0.0254 0.28786,-0.0508 0.16087,-0.03387 0.31327,-0.06773 0.1524,-0.03387 0.2794,-0.06773 0.13547,-0.03387 0.23707,-0.06773 v -0.127 q 0,-0.313267 -0.23707,-0.423333 -0.23707,-0.118534 -0.57573,-0.118534 -0.4572,0 -0.62654,0.143934 -0.16933,0.143933 -0.16933,0.499533 l -1.03293,-0.04233 q 0,-0.381 0.1524,-0.643467 0.1524,-0.262467 0.4064,-0.4318 0.254,-0.169333 0.5842,-0.245533 0.3302,-0.0762 0.6858,-0.0762 0.34713,0 0.67733,0.0508 0.3302,0.04233 0.59267,0.194733 0.26246,0.1524 0.41486,0.4318 0.16087,0.270933 0.16087,0.728133 z m -1.03293,-1.4224 q -0.19474,0.1016 -0.49107,0.1524 l -0.56727,0.118533 q -0.29633,0.05927 -0.508,0.1778 -0.2032,0.110067 -0.2032,0.414867 0,0.245533 0.19474,0.389467 0.19473,0.143933 0.47413,0.143933 0.1778,0 0.37253,-0.04233 0.19474,-0.0508 0.3556,-0.143934 0.16087,-0.09313 0.26247,-0.245533 0.11007,-0.1524 0.11007,-0.3556 z" />
      <path
         d="m 106.66637,78.500396 h 1.03293 v 0.423333 h 0.0169 q 0.2286,-0.2794 0.54187,-0.397933 0.31327,-0.127 0.62653,-0.127 0.77047,0 1.1176,0.372533 0.3556,0.372533 0.3556,1.083733 v 2.929467 h -1.03293 v -2.6162 q 0,-0.143933 -0.0423,-0.2794 -0.0339,-0.143933 -0.11854,-0.245533 -0.0762,-0.110067 -0.21166,-0.1778 -0.13547,-0.06773 -0.33867,-0.06773 -0.18627,0 -0.3556,0.06773 -0.16087,0.05927 -0.28787,0.2032 -0.127,0.135466 -0.2032,0.347133 -0.0677,0.211667 -0.0677,0.508 v 2.2606 h -1.03293 z" />
      <path
         d="m 113.20806,79.347062 q -0.29634,0 -0.49107,0.118534 -0.18627,0.110066 -0.3048,0.296333 -0.11853,0.186267 -0.16933,0.423333 -0.0508,0.2286 -0.0508,0.4572 0,0.2286 0.0508,0.465667 0.0508,0.2286 0.16933,0.414866 0.11853,0.186267 0.3048,0.3048 0.19473,0.110067 0.49107,0.110067 0.28786,0 0.4826,-0.110067 0.19473,-0.118533 0.31326,-0.3048 0.11854,-0.186266 0.16934,-0.414866 0.0508,-0.237067 0.0508,-0.465667 0,-0.2286 -0.0508,-0.4572 -0.0508,-0.237066 -0.16934,-0.423333 -0.11853,-0.186267 -0.31326,-0.296333 -0.19474,-0.118534 -0.4826,-0.118534 z m 0.98213,3.0226 h -0.0169 q -0.19474,0.2286 -0.46567,0.372533 -0.27093,0.143934 -0.7366,0.143934 -0.41487,0 -0.762,-0.1778 -0.33867,-0.1778 -0.5842,-0.4826 -0.24553,-0.3048 -0.381,-0.7112 -0.13547,-0.4064 -0.13547,-0.872067 0,-0.465666 0.13547,-0.872066 0.13547,-0.4064 0.381,-0.7112 0.24553,-0.3048 0.5842,-0.4826 0.34713,-0.1778 0.762,-0.1778 0.381,0 0.67733,0.127 0.3048,0.118533 0.54187,0.338666 v -2.1082 h 1.03293 v 6.028267 h -1.03293 z" />
      <path
         d="m 118.63149,76.756262 h 4.2672 v 1.049867 h -3.13267 v 1.3716 h 2.87867 v 0.999067 h -2.87867 v 1.557866 h 3.3528 v 1.049867 h -4.48733 z" />
      <path
         d="m 123.76506,78.500396 h 1.03294 v 0.423333 h 0.0169 q 0.2286,-0.2794 0.54187,-0.397933 0.31326,-0.127 0.62653,-0.127 0.77047,0 1.1176,0.372533 0.3556,0.372533 0.3556,1.083733 v 2.929467 h -1.03293 v -2.6162 q 0,-0.143933 -0.0423,-0.2794 -0.0339,-0.143933 -0.11853,-0.245533 -0.0762,-0.110067 -0.21167,-0.1778 -0.13546,-0.06773 -0.33866,-0.06773 -0.18627,0 -0.3556,0.06773 -0.16087,0.05927 -0.28787,0.2032 -0.127,0.135466 -0.2032,0.347133 -0.0677,0.211667 -0.0677,0.508 v 2.2606 h -1.03294 z" />
      <path
         d="m 132.32182,82.691395 q 0,0.4572 -0.16934,0.745067 -0.16086,0.296333 -0.4572,0.465667 -0.29633,0.1778 -0.70273,0.237066 -0.4064,0.06773 -0.89747,0.06773 -0.508,0 -0.84666,-0.135467 -0.3302,-0.127 -0.5334,-0.3302 -0.2032,-0.194733 -0.28787,-0.4318 -0.0762,-0.2286 -0.0762,-0.4318 h 1.08373 q 0.0593,0.220133 0.27094,0.372533 0.22013,0.160867 0.6096,0.160867 0.508,0 0.7366,-0.237067 0.23706,-0.2286 0.23706,-0.626533 v -0.4572 q -0.127,0.135467 -0.2794,0.2286 -0.1524,0.08467 -0.31326,0.143933 -0.16087,0.0508 -0.3302,0.0762 -0.16087,0.0254 -0.29634,0.0254 -0.39793,0 -0.74506,-0.143933 -0.33867,-0.143933 -0.59267,-0.414867 -0.24553,-0.270933 -0.38947,-0.651933 -0.13546,-0.389467 -0.13546,-0.872066 0,-0.4826 0.13546,-0.8636 0.14394,-0.389467 0.38947,-0.6604 0.254,-0.270934 0.59267,-0.414867 0.34713,-0.143933 0.74506,-0.143933 0.46567,0 0.7366,0.143933 0.27094,0.143933 0.46567,0.372533 h 0.0169 v -0.414866 h 1.03294 z m -0.99907,-2.209799 q 0,-0.169334 -0.0508,-0.364067 -0.0508,-0.2032 -0.16933,-0.372533 -0.11854,-0.169334 -0.31327,-0.2794 -0.19473,-0.118534 -0.4826,-0.118534 -0.29633,0 -0.49107,0.118534 -0.18626,0.110066 -0.3048,0.2794 -0.11853,0.169333 -0.16933,0.372533 -0.0508,0.194733 -0.0508,0.364067 0,0.169333 0.0508,0.372533 0.0508,0.194733 0.16933,0.364066 0.11854,0.169334 0.3048,0.287867 0.19474,0.110067 0.49107,0.110067 0.28787,0 0.4826,-0.110067 0.19473,-0.118533 0.31327,-0.287867 0.11853,-0.169333 0.16933,-0.364066 0.0508,-0.2032 0.0508,-0.372533 z" />
      <path
         d="m 133.33967,78.500396 h 1.03293 v 4.284133 h -1.03293 z m 0,-1.744134 h 1.03293 v 1.049867 h -1.03293 z" />
      <path
         d="m 135.39019,78.500396 h 1.03293 v 0.423333 h 0.0169 q 0.2286,-0.2794 0.54186,-0.397933 0.31327,-0.127 0.62654,-0.127 0.77046,0 1.1176,0.372533 0.3556,0.372533 0.3556,1.083733 v 2.929467 h -1.03294 v -2.6162 q 0,-0.143933 -0.0423,-0.2794 -0.0339,-0.143933 -0.11853,-0.245533 -0.0762,-0.110067 -0.21167,-0.1778 -0.13547,-0.06773 -0.33867,-0.06773 -0.18626,0 -0.3556,0.06773 -0.16086,0.05927 -0.28786,0.2032 -0.127,0.135466 -0.2032,0.347133 -0.0677,0.211667 -0.0677,0.508 v 2.2606 h -1.03293 z" />
      <path
         d="m 140.91588,80.887995 q 0.008,0.237067 0.1016,0.4318 0.0931,0.194734 0.24553,0.3302 0.16087,0.135467 0.3556,0.211667 0.19474,0.0762 0.4064,0.0762 0.3048,0 0.51647,-0.0762 0.22013,-0.0762 0.36407,-0.1778 0.1524,-0.1016 0.2286,-0.2032 0.0847,-0.1016 0.127,-0.1524 l 0.87206,0.508 q -0.11853,0.186267 -0.3048,0.372533 -0.1778,0.186267 -0.4318,0.338667 -0.254,0.1524 -0.59266,0.245533 -0.33867,0.09313 -0.77894,0.09313 -0.52493,0 -0.93133,-0.169334 -0.4064,-0.169333 -0.6858,-0.465666 -0.2794,-0.3048 -0.4318,-0.7112 -0.14393,-0.414867 -0.14393,-0.897467 0,-0.4826 0.14393,-0.889 0.1524,-0.414866 0.4318,-0.7112 0.2794,-0.3048 0.6858,-0.474133 0.4064,-0.169333 0.93133,-0.169333 0.5334,0 0.92287,0.1778 0.38947,0.169333 0.64347,0.491066 0.254,0.321734 0.37253,0.7874 0.11853,0.4572 0.11853,1.032933 z m 2.0828,-0.795866 q 0,-0.08467 -0.0593,-0.2286 -0.0508,-0.143933 -0.16933,-0.2794 -0.11853,-0.135467 -0.3048,-0.237067 -0.1778,-0.1016 -0.44027,-0.1016 -0.4572,0 -0.74506,0.254 -0.2794,0.245534 -0.36407,0.592667 z" />
      <path
         d="m 145.62877,80.887995 q 0.008,0.237067 0.1016,0.4318 0.0931,0.194734 0.24554,0.3302 0.16086,0.135467 0.3556,0.211667 0.19473,0.0762 0.4064,0.0762 0.3048,0 0.51646,-0.0762 0.22014,-0.0762 0.36407,-0.1778 0.1524,-0.1016 0.2286,-0.2032 0.0847,-0.1016 0.127,-0.1524 l 0.87207,0.508 q -0.11854,0.186267 -0.3048,0.372533 -0.1778,0.186267 -0.4318,0.338667 -0.254,0.1524 -0.59267,0.245533 -0.33867,0.09313 -0.77893,0.09313 -0.52494,0 -0.93134,-0.169334 -0.4064,-0.169333 -0.6858,-0.465666 -0.2794,-0.3048 -0.4318,-0.7112 -0.14393,-0.414867 -0.14393,-0.897467 0,-0.4826 0.14393,-0.889 0.1524,-0.414866 0.4318,-0.7112 0.2794,-0.3048 0.6858,-0.474133 0.4064,-0.169333 0.93134,-0.169333 0.5334,0 0.92286,0.1778 0.38947,0.169333 0.64347,0.491066 0.254,0.321734 0.37253,0.7874 0.11854,0.4572 0.11854,1.032933 z m 2.0828,-0.795866 q 0,-0.08467 -0.0593,-0.2286 -0.0508,-0.143933 -0.16934,-0.2794 -0.11853,-0.135467 -0.3048,-0.237067 -0.1778,-0.1016 -0.44026,-0.1016 -0.4572,0 -0.74507,0.254 -0.2794,0.245534 -0.36407,0.592667 z" />
      <path
         d="m 149.52886,78.500396 h 1.03294 v 0.592666 h 0.0169 q 0.18627,-0.372533 0.52493,-0.5334 0.33867,-0.160866 0.79587,-0.160866 v 1.049866 q -0.26247,0 -0.508,0.06773 -0.23707,0.06773 -0.42333,0.220133 -0.18627,0.143933 -0.29634,0.389467 -0.11006,0.237066 -0.11006,0.5842 v 2.074333 h -1.03294 z" />
      <path
         d="m 152.50543,78.500396 h 1.03293 v 4.284133 h -1.03293 z m 0,-1.744134 h 1.03293 v 1.049867 h -1.03293 z" />
      <path
         d="m 154.55595,78.500396 h 1.03293 v 0.423333 h 0.0169 q 0.2286,-0.2794 0.54187,-0.397933 0.31327,-0.127 0.62653,-0.127 0.77047,0 1.1176,0.372533 0.3556,0.372533 0.3556,1.083733 v 2.929467 h -1.03293 v -2.6162 q 0,-0.143933 -0.0423,-0.2794 -0.0339,-0.143933 -0.11854,-0.245533 -0.0762,-0.110067 -0.21166,-0.1778 -0.13547,-0.06773 -0.33867,-0.06773 -0.18627,0 -0.3556,0.06773 -0.16087,0.05927 -0.28787,0.2032 -0.127,0.135466 -0.2032,0.347133 -0.0677,0.211667 -0.0677,0.508 v 2.2606 h -1.03293 z" />
      <path
         d="m 163.1127,82.691395 q 0,0.4572 -0.16933,0.745067 -0.16087,0.296333 -0.4572,0.465667 -0.29634,0.1778 -0.70274,0.237066 -0.4064,0.06773 -0.89746,0.06773 -0.508,0 -0.84667,-0.135467 -0.3302,-0.127 -0.5334,-0.3302 -0.2032,-0.194733 -0.28787,-0.4318 -0.0762,-0.2286 -0.0762,-0.4318 h 1.08374 q 0.0593,0.220133 0.27093,0.372533 0.22013,0.160867 0.6096,0.160867 0.508,0 0.7366,-0.237067 0.23707,-0.2286 0.23707,-0.626533 v -0.4572 q -0.127,0.135467 -0.2794,0.2286 -0.1524,0.08467 -0.31327,0.143933 -0.16087,0.0508 -0.3302,0.0762 -0.16087,0.0254 -0.29633,0.0254 -0.39794,0 -0.74507,-0.143933 -0.33867,-0.143933 -0.59267,-0.414867 -0.24553,-0.270933 -0.38946,-0.651933 -0.13547,-0.389467 -0.13547,-0.872066 0,-0.4826 0.13547,-0.8636 0.14393,-0.389467 0.38946,-0.6604 0.254,-0.270934 0.59267,-0.414867 0.34713,-0.143933 0.74507,-0.143933 0.46566,0 0.7366,0.143933 0.27093,0.143933 0.46566,0.372533 h 0.0169 v -0.414866 h 1.03293 z m -0.99907,-2.209799 q 0,-0.169334 -0.0508,-0.364067 -0.0508,-0.2032 -0.16933,-0.372533 -0.11853,-0.169334 -0.31327,-0.2794 -0.19473,-0.118534 -0.4826,-0.118534 -0.29633,0 -0.49106,0.118534 -0.18627,0.110066 -0.3048,0.2794 -0.11854,0.169333 -0.16934,0.372533 -0.0508,0.194733 -0.0508,0.364067 0,0.169333 0.0508,0.372533 0.0508,0.194733 0.16934,0.364066 0.11853,0.169334 0.3048,0.287867 0.19473,0.110067 0.49106,0.110067 0.28787,0 0.4826,-0.110067 0.19474,-0.118533 0.31327,-0.287867 0.11853,-0.169333 0.16933,-0.364066 0.0508,-0.2032 0.0508,-0.372533 z" />
    </g>
</svg>
